<svg width="74" height="20" viewBox="0 0 74 20" fill="none" xmlns="http://www.w3.org/2000/svg">
<path d="M26.4177 9.512C26.4177 8.128 26.6657 7.044 27.1617 6.26C27.6657 5.476 28.4977 5.084 29.6577 5.084C30.8177 5.084 31.6457 5.476 32.1417 6.26C32.6457 7.044 32.8977 8.128 32.8977 9.512C32.8977 10.904 32.6457 11.996 32.1417 12.788C31.6457 13.58 30.8177 13.976 29.6577 13.976C28.4977 13.976 27.6657 13.58 27.1617 12.788C26.6657 11.996 26.4177 10.904 26.4177 9.512ZM31.2417 9.512C31.2417 8.92 31.2017 8.424 31.1217 8.024C31.0497 7.616 30.8977 7.284 30.6657 7.028C30.4417 6.772 30.1057 6.644 29.6577 6.644C29.2097 6.644 28.8697 6.772 28.6377 7.028C28.4137 7.284 28.2617 7.616 28.1817 8.024C28.1097 8.424 28.0737 8.92 28.0737 9.512C28.0737 10.12 28.1097 10.632 28.1817 11.048C28.2537 11.456 28.4057 11.788 28.6377 12.044C28.8697 12.292 29.2097 12.416 29.6577 12.416C30.1057 12.416 30.4457 12.292 30.6777 12.044C30.9097 11.788 31.0617 11.456 31.1337 11.048C31.2057 10.632 31.2417 10.12 31.2417 9.512ZM33.9716 6.8V5.252H36.8636V14H35.1356V6.8H33.9716ZM46.7106 12.404H43.3746L42.8226 14H41.0586L44.0706 5.612H46.0266L49.0386 14H47.2626L46.7106 12.404ZM46.2546 11.06L45.0426 7.556L43.8306 11.06H46.2546ZM49.7324 10.652C49.7324 9.98 49.8644 9.384 50.1284 8.864C50.4004 8.344 50.7684 7.944 51.2324 7.664C51.6964 7.384 52.2124 7.244 52.7804 7.244C53.2124 7.244 53.6244 7.34 54.0164 7.532C54.4084 7.716 54.7204 7.964 54.9524 8.276V5.12H56.6564V14H54.9524V13.016C54.7444 13.344 54.4524 13.608 54.0764 13.808C53.7004 14.008 53.2644 14.108 52.7684 14.108C52.2084 14.108 51.6964 13.964 51.2324 13.676C50.7684 13.388 50.4004 12.984 50.1284 12.464C49.8644 11.936 49.7324 11.332 49.7324 10.652ZM54.9644 10.676C54.9644 10.268 54.8844 9.92 54.7244 9.632C54.5644 9.336 54.3484 9.112 54.0764 8.96C53.8044 8.8 53.5124 8.72 53.2004 8.72C52.8884 8.72 52.6004 8.796 52.3364 8.948C52.0724 9.1 51.8564 9.324 51.6884 9.62C51.5284 9.908 51.4484 10.252 51.4484 10.652C51.4484 11.052 51.5284 11.404 51.6884 11.708C51.8564 12.004 52.0724 12.232 52.3364 12.392C52.6084 12.552 52.8964 12.632 53.2004 12.632C53.5124 12.632 53.8044 12.556 54.0764 12.404C54.3484 12.244 54.5644 12.02 54.7244 11.732C54.8844 11.436 54.9644 11.084 54.9644 10.676ZM64.5732 7.352V14H62.8812V13.16C62.6652 13.448 62.3812 13.676 62.0292 13.844C61.6852 14.004 61.3092 14.084 60.9012 14.084C60.3812 14.084 59.9212 13.976 59.5212 13.76C59.1212 13.536 58.8052 13.212 58.5732 12.788C58.3492 12.356 58.2372 11.844 58.2372 11.252V7.352H59.9172V11.012C59.9172 11.54 60.0492 11.948 60.3132 12.236C60.5772 12.516 60.9372 12.656 61.3932 12.656C61.8572 12.656 62.2212 12.516 62.4852 12.236C62.7492 11.948 62.8812 11.54 62.8812 11.012V7.352H64.5732ZM67.9108 5.12V14H66.2308V5.12H67.9108ZM71.5267 8.732V11.948C71.5267 12.172 71.5787 12.336 71.6827 12.44C71.7947 12.536 71.9787 12.584 72.2347 12.584H73.0147V14H71.9587C70.5427 14 69.8347 13.312 69.8347 11.936V8.732H69.0427V7.352H69.8347V5.708H71.5267V7.352H73.0147V8.732H71.5267Z" fill="black"/>
<path d="M17.3089 16.4847C17.3089 16.9219 17.1352 17.3412 16.8261 17.6503C16.5169 17.9595 16.0976 18.1332 15.6604 18.1332H4.12113C3.68393 18.1332 3.26463 17.9595 2.95548 17.6503C2.64633 17.3412 2.47266 16.9219 2.47266 16.4847C2.47266 15.1731 2.99369 13.9152 3.92114 12.9878C4.84858 12.0603 6.10647 11.5393 7.41807 11.5393H12.3635C13.6751 11.5393 14.933 12.0603 15.8604 12.9878C16.7879 13.9152 17.3089 15.1731 17.3089 16.4847ZM9.89078 9.8908C10.7059 9.8908 11.5027 9.6491 12.1804 9.19626C12.8581 8.74341 13.3863 8.09977 13.6983 7.34673C14.0102 6.59368 14.0918 5.76505 13.9328 4.96562C13.7738 4.16619 13.3813 3.43186 12.8049 2.85551C12.2285 2.27915 11.4942 1.88664 10.6948 1.72763C9.89535 1.56861 9.06672 1.65022 8.31367 1.96215C7.56063 2.27407 6.91699 2.80229 6.46414 3.48001C6.0113 4.15774 5.7696 4.95453 5.7696 5.76962C5.7696 6.86262 6.2038 7.91086 6.97667 8.68373C7.74954 9.45661 8.79778 9.8908 9.89078 9.8908V9.8908Z" fill="black"/>
</svg>
