<svg width="512" height="512" viewBox="0 0 512 512" fill="none" xmlns="http://www.w3.org/2000/svg">
<path d="M426.24 127.72L415.3 138.66C409.73 144.23 402.177 147.358 394.3 147.358C386.423 147.358 378.87 144.23 373.3 138.66C367.73 133.09 364.602 125.537 364.602 117.66C364.602 109.783 367.73 102.23 373.3 96.66L384.24 85.72L314.52 16L226.52 104L222.52 116.09L210.43 120.09L16 314.52L85.76 384.28L96.7 373.34C102.27 367.77 109.823 364.642 117.7 364.642C125.577 364.642 133.13 367.77 138.7 373.34C144.27 378.91 147.398 386.463 147.398 394.34C147.398 402.217 144.27 409.77 138.7 415.34L127.76 426.28L197.48 496L391.88 301.6L395.88 289.51L407.97 285.51L495.97 197.51L426.24 127.72ZM217.68 133.15L239.55 111.28L272.55 144.28L250.67 166.15L217.68 133.15ZM260.68 176.15L282.56 154.27L315.08 186.79L293.2 208.67L260.68 176.15ZM303.24 218.71L325.12 196.83L357.64 229.35L335.8 251.28L303.24 218.71ZM378.81 294.27L345.81 261.27L367.68 239.39L400.68 272.39L378.81 294.27Z" fill="black"/>
</svg>
