<svg width="40" height="40" viewBox="0 0 40 40" fill="none" xmlns="http://www.w3.org/2000/svg">
<path d="M0 6C0 2.68629 2.68629 0 6 0H34C37.3137 0 40 2.68629 40 6V34C40 37.3137 37.3137 40 34 40H6C2.68629 40 0 37.3137 0 34V6Z" fill="#FF4E00"/>
<rect width="24" height="24" transform="translate(8 8)" fill="#FF4E00"/>
<path d="M16 11V15M28 29H12C11.7348 29 11.4804 28.8946 11.2929 28.7071C11.1054 28.5196 11 28.2652 11 28V18H29V28C29 28.2652 28.8946 28.5196 28.7071 28.7071C28.5196 28.8946 28.2652 29 28 29ZM29 14C29 13.7348 28.8946 13.4804 28.7071 13.2929C28.5196 13.1054 28.2652 13 28 13H12C11.7348 13 11.4804 13.1054 11.2929 13.2929C11.1054 13.4804 11 13.7348 11 14V18H29V14ZM24 11V15V11Z" stroke="#FF4E00" stroke-width="2" stroke-linecap="round" stroke-linejoin="round"/>
<path d="M18 30C16.75 30 15.5793 29.7667 14.488 29.3C13.396 28.8333 12.4417 28.1917 11.625 27.375C10.8083 26.5583 10.1667 25.604 9.7 24.512C9.23333 23.4207 9 22.25 9 21C9 19.75 9.23333 18.579 9.7 17.487C10.1667 16.3957 10.8083 15.4417 11.625 14.625C12.4417 13.8083 13.396 13.1667 14.488 12.7C15.5793 12.2333 16.75 12 18 12C18.35 12 18.6873 12.0207 19.012 12.062C19.3373 12.104 19.6667 12.1667 20 12.25V14.3C19.6667 14.2 19.3373 14.125 19.012 14.075C18.6873 14.025 18.35 14 18 14C16.0333 14 14.375 14.675 13.025 16.025C11.675 17.375 11 19.0333 11 21C11 22.9667 11.675 24.625 13.025 25.975C14.375 27.325 16.0333 28 18 28C19.9667 28 21.625 27.325 22.975 25.975C24.325 24.625 25 22.9667 25 21C25 20.8167 24.9917 20.65 24.975 20.5C24.9583 20.35 24.9333 20.1833 24.9 20H26.95C26.9833 20.1833 27 20.35 27 20.5V21C27 22.25 26.7667 23.4207 26.3 24.512C25.8333 25.604 25.1917 26.5583 24.375 27.375C23.5583 28.1917 22.6043 28.8333 21.513 29.3C20.421 29.7667 19.25 30 18 30ZM20.8 25.2L17 21.4V16H19V20.6L22.2 23.8L20.8 25.2ZM25 18V15H22V13H25V10H27V13H30V15H27V18H25Z" fill="white"/>
</svg>
