<svg width="17" height="21" viewBox="0 0 17 21" fill="none" xmlns="http://www.w3.org/2000/svg">
<path d="M7 15.938C4.98271 15.6813 3.13885 14.6661 1.84319 13.0988C0.547523 11.5314 -0.102721 9.52954 0.0246205 7.49997C0.151962 5.47041 1.04733 3.56549 2.52874 2.17238C4.01016 0.779274 5.96645 0.00252301 8 2.22086e-06C10.036 -0.00151396 11.9961 0.77334 13.4807 2.16668C14.9653 3.56002 15.8628 5.467 15.9903 7.49904C16.1178 9.53109 15.4657 11.5353 14.1669 13.1033C12.868 14.6712 11.0203 15.685 9 15.938V18.012C12.946 18.104 16 18.735 16 19.5C16 20.328 12.418 21 8 21C3.582 21 0 20.328 0 19.5C0 18.735 3.054 18.104 7 18.012V15.938ZM8 10C8.53043 10 9.03914 9.78929 9.41421 9.41422C9.78929 9.03914 10 8.53043 10 8C10 7.46957 9.78929 6.96086 9.41421 6.58579C9.03914 6.21072 8.53043 6 8 6C7.46957 6 6.96086 6.21072 6.58579 6.58579C6.21071 6.96086 6 7.46957 6 8C6 8.53043 6.21071 9.03914 6.58579 9.41422C6.96086 9.78929 7.46957 10 8 10Z" fill="black"/>
</svg>
