<svg width="512" height="512" viewBox="0 0 512 512" fill="none" xmlns="http://www.w3.org/2000/svg">
<path d="M435.25 48H312.35C308.529 47.9972 304.861 49.5072 302.15 52.2L56.45 297.9C51.0701 303.306 48.0499 310.623 48.0499 318.25C48.0499 325.877 51.0701 333.194 56.45 338.6L173.45 455.6C178.856 460.98 186.173 464 193.8 464C201.427 464 208.744 460.98 214.15 455.6L459.75 210C462.443 207.289 463.953 203.621 463.95 199.8V76.8C463.968 73.0212 463.239 69.2761 461.805 65.7801C460.37 62.2841 458.259 59.1063 455.591 56.4296C452.924 53.7529 449.753 51.6301 446.262 50.1834C442.771 48.7367 439.029 47.9947 435.25 48Z" stroke="black" stroke-width="32" stroke-linecap="round" stroke-linejoin="round"/>
<path d="M384 160C377.671 160 371.484 158.123 366.222 154.607C360.959 151.091 356.858 146.093 354.436 140.246C352.014 134.399 351.38 127.965 352.615 121.757C353.85 115.55 356.897 109.848 361.373 105.373C365.848 100.897 371.55 97.8496 377.757 96.6149C383.965 95.3802 390.399 96.0139 396.246 98.4359C402.093 100.858 407.091 104.959 410.607 110.222C414.123 115.484 416 121.671 416 128C416 136.487 412.629 144.626 406.627 150.627C400.626 156.629 392.487 160 384 160Z" fill="black"/>
</svg>
