<svg width="24" height="24" viewBox="0 0 24 24" fill="none" xmlns="http://www.w3.org/2000/svg">
<path d="M20 2.00002H14C13.8684 1.99926 13.738 2.02448 13.6161 2.07425C13.4943 2.12401 13.3835 2.19734 13.29 2.29002L3.00003 12.55C2.81407 12.7358 2.66655 12.9563 2.56591 13.1991C2.46526 13.4419 2.41345 13.7022 2.41345 13.965C2.41345 14.2278 2.46526 14.4881 2.56591 14.7309C2.66655 14.9737 2.81407 15.1943 3.00003 15.38L8.62003 21C8.99338 21.3756 9.50045 21.5878 10.03 21.59V21.59C10.2939 21.5902 10.5553 21.5382 10.799 21.4369C11.0427 21.3357 11.264 21.1872 11.45 21L21.71 10.7C21.8948 10.5138 21.9989 10.2624 22 10V4.00002C22 3.46958 21.7893 2.96088 21.4142 2.5858C21.0392 2.21073 20.5305 2.00002 20 2.00002Z" fill="#F6921E"/>
<path d="M17.5 8C18.3284 8 19 7.32843 19 6.5C19 5.67157 18.3284 5 17.5 5C16.6716 5 16 5.67157 16 6.5C16 7.32843 16.6716 8 17.5 8Z" fill="black"/>
</svg>
