<svg width="53" height="47" viewBox="0 0 53 47" fill="none" xmlns="http://www.w3.org/2000/svg">
<rect width="52.8889" height="46.2019" fill="white"/>
<path d="M10.8202 32.7263H8.81479C8.23033 32.7263 7.66981 32.5235 7.25653 32.1625C6.84326 31.8014 6.61108 31.3118 6.61108 30.8012V11.5505C6.61108 11.0399 6.84326 10.5502 7.25653 10.1892C7.66981 9.82819 8.23033 9.62537 8.81479 9.62537H40.2837C40.7457 9.62433 41.1964 9.75015 41.572 9.98506C41.9477 10.22 42.2294 10.5521 42.3772 10.9344L46.2778 20.8871L46.3879 21.4839V30.8012C46.3879 31.3118 46.1558 31.8014 45.7425 32.1625C45.3292 32.5235 44.7687 32.7263 44.1842 32.7263H42.1789" stroke="black" stroke-width="2" stroke-linecap="round" stroke-linejoin="round"/>
<path d="M6.61108 21.1758H46.2778H6.61108ZM15.4259 28.8761C14.5542 28.8761 13.7021 29.102 12.9773 29.525C12.2525 29.9481 11.6876 30.5494 11.354 31.2529C11.0204 31.9564 10.9331 32.7306 11.1032 33.4774C11.2732 34.2243 11.693 34.9103 12.3094 35.4488C12.9258 35.9872 13.7111 36.3539 14.5661 36.5025C15.421 36.651 16.3072 36.5748 17.1125 36.2834C17.9179 35.992 18.6062 35.4985 19.0905 34.8653C19.5748 34.2322 19.8333 33.4878 19.8333 32.7263C19.8333 31.7052 19.369 30.7259 18.5424 30.0038C17.7159 29.2818 16.5948 28.8761 15.4259 28.8761ZM37.4629 28.8761C36.5912 28.8761 35.7391 29.102 35.0143 29.525C34.2895 29.9481 33.7246 30.5494 33.391 31.2529C33.0574 31.9564 32.9702 32.7306 33.1402 33.4774C33.3103 34.2243 33.73 34.9103 34.3464 35.4488C34.9628 35.9872 35.7481 36.3539 36.6031 36.5025C37.458 36.651 38.3442 36.5748 39.1496 36.2834C39.9549 35.992 40.6433 35.4985 41.1276 34.8653C41.6119 34.2322 41.8703 33.4878 41.8703 32.7263C41.8703 31.7052 41.406 30.7259 40.5794 30.0038C39.7529 29.2818 38.6319 28.8761 37.4629 28.8761ZM32.9233 32.7263H20.0096H32.9233ZM19.8333 21.1758H33.0555V9.62537H19.8333V21.1758Z" stroke="black" stroke-width="2" stroke-linecap="round" stroke-linejoin="round"/>
</svg>
