<svg width="252" height="261" viewBox="0 0 252 261" fill="none" xmlns="http://www.w3.org/2000/svg">
<circle cx="126" cy="134.595" r="124.5" stroke="black" stroke-width="3"/>
<circle cx="125.5" cy="136.095" r="94" stroke="black" stroke-width="3"/>
<path d="M106 26.0951C210.5 16.0951 242 102.095 233.5 151.595" stroke="url(#paint0_linear_49_175)" stroke-width="19"/>
<path d="M83.718 215.595V184.322H96.2393C98.54 184.322 100.459 184.664 101.996 185.346C103.533 186.028 104.689 186.974 105.462 188.186C106.236 189.387 106.623 190.771 106.623 192.339C106.623 193.561 106.379 194.635 105.89 195.561C105.401 196.477 104.729 197.231 103.874 197.821C103.029 198.401 102.062 198.814 100.973 199.058V199.363C102.164 199.414 103.279 199.75 104.317 200.371C105.366 200.992 106.216 201.862 106.867 202.982C107.519 204.092 107.844 205.415 107.844 206.952C107.844 208.612 107.432 210.093 106.608 211.396C105.793 212.689 104.587 213.712 102.989 214.465C101.39 215.219 99.4206 215.595 97.0792 215.595H83.718ZM90.3299 210.19H95.7202C97.5627 210.19 98.9065 209.838 99.7514 209.136C100.596 208.423 101.019 207.477 101.019 206.296C101.019 205.431 100.81 204.667 100.393 204.005C99.9754 203.344 99.3799 202.824 98.6062 202.448C97.8427 202.071 96.9316 201.883 95.8729 201.883H90.3299V210.19ZM90.3299 197.409H95.2315C96.1375 197.409 96.9418 197.251 97.6442 196.935C98.3568 196.61 98.9167 196.152 99.3239 195.561C99.7412 194.971 99.9499 194.263 99.9499 193.439C99.9499 192.309 99.5478 191.398 98.7436 190.705C97.9496 190.013 96.8196 189.667 95.3537 189.667H90.3299V197.409ZM117.797 184.322L125.355 208.082H125.645L133.219 184.322H140.549L129.768 215.595H121.248L110.452 184.322H117.797ZM170.47 184.322V215.595H164.759L151.154 195.912H150.925V215.595H144.313V184.322H150.115L163.614 203.99H163.889V184.322H170.47Z" fill="url(#paint1_linear_49_175)"/>
<path d="M101.049 148.917H97.3333C96.2504 148.917 95.2118 148.539 94.446 147.867C93.6802 147.195 93.25 146.284 93.25 145.333V109.5C93.25 108.55 93.6802 107.638 94.446 106.966C95.2118 106.294 96.2504 105.917 97.3333 105.917H155.643C156.499 105.915 157.334 106.149 158.031 106.586C158.727 107.024 159.249 107.642 159.523 108.353L166.75 126.879L166.954 127.99V145.333C166.954 146.284 166.524 147.195 165.758 147.867C164.992 148.539 163.954 148.917 162.871 148.917H159.155" stroke="black" stroke-width="2" stroke-linecap="round" stroke-linejoin="round"/>
<path d="M93.25 127.417H166.75H93.25ZM109.583 141.75C107.968 141.75 106.389 142.17 105.046 142.958C103.703 143.745 102.656 144.865 102.038 146.174C101.42 147.484 101.258 148.925 101.574 150.315C101.889 151.705 102.666 152.982 103.809 153.984C104.951 154.987 106.406 155.669 107.99 155.946C109.574 156.222 111.216 156.08 112.709 155.538C114.201 154.995 115.476 154.077 116.374 152.898C117.271 151.72 117.75 150.334 117.75 148.917C117.75 147.016 116.89 145.193 115.358 143.849C113.826 142.505 111.749 141.75 109.583 141.75ZM150.417 141.75C148.801 141.75 147.223 142.17 145.88 142.958C144.537 143.745 143.49 144.865 142.872 146.174C142.254 147.484 142.092 148.925 142.407 150.315C142.722 151.705 143.5 152.982 144.642 153.984C145.784 154.987 147.239 155.669 148.823 155.946C150.408 156.222 152.05 156.08 153.542 155.538C155.034 154.995 156.31 154.077 157.207 152.898C158.104 151.72 158.583 150.334 158.583 148.917C158.583 147.016 157.723 145.193 156.191 143.849C154.66 142.505 152.583 141.75 150.417 141.75ZM142.005 148.917H118.077H142.005ZM117.75 127.417H142.25V105.917H117.75V127.417Z" stroke="black" stroke-width="2" stroke-linecap="round" stroke-linejoin="round"/>
<defs>
<linearGradient id="paint0_linear_49_175" x1="230.628" y1="108.179" x2="135.578" y2="133.959" gradientUnits="userSpaceOnUse">
<stop stop-color="#FF9900"/>
<stop offset="1" stop-color="#EE282F"/>
</linearGradient>
<linearGradient id="paint1_linear_49_175" x1="127.5" y1="173.595" x2="127.5" y2="225.595" gradientUnits="userSpaceOnUse">
<stop stop-color="#FF9900"/>
<stop offset="1" stop-color="#EE282F"/>
</linearGradient>
</defs>
</svg>
