<svg width="560" height="512" viewBox="0 0 560 512" fill="none" xmlns="http://www.w3.org/2000/svg">
<path d="M366.049 145.999C357.73 137.677 352.859 126.521 352.41 114.763C351.961 103.005 355.968 91.5103 363.629 82.5787C364.262 81.8359 364.592 80.881 364.551 79.9055C364.51 78.9301 364.102 78.006 363.409 77.3187L319.279 33.1387C318.549 32.4096 317.56 32 316.529 32C315.497 32 314.508 32.4096 313.779 33.1387L243.439 103.479C240.843 106.073 238.888 109.237 237.729 112.719C236.573 116.209 234.621 119.381 232.026 121.985C229.431 124.588 226.265 126.552 222.779 127.719C219.295 128.88 216.128 130.834 213.529 133.429L33.1387 313.779C32.4096 314.508 32 315.497 32 316.529C32 317.56 32.4096 318.549 33.1387 319.279L77.2687 363.409C77.956 364.102 78.8801 364.51 79.8555 364.551C80.831 364.592 81.7859 364.262 82.5287 363.629C91.4584 355.96 102.955 351.947 114.718 352.393C126.48 352.839 137.64 357.711 145.963 366.034C154.286 374.357 159.159 385.517 159.605 397.28C160.051 409.042 156.038 420.539 148.369 429.469C147.735 430.212 147.406 431.166 147.446 432.142C147.487 433.117 147.895 434.041 148.589 434.729L192.719 478.859C193.448 479.588 194.437 479.997 195.469 479.997C196.5 479.997 197.489 479.588 198.219 478.859L378.619 298.469C381.213 295.869 383.168 292.703 384.329 289.219C385.484 285.729 387.437 282.556 390.032 279.953C392.627 277.349 395.793 275.386 399.279 274.219C402.76 273.059 405.924 271.104 408.519 268.509L478.859 198.169C479.588 197.439 479.997 196.45 479.997 195.419C479.997 194.387 479.588 193.398 478.859 192.669L434.729 148.539C434.041 147.845 433.117 147.437 432.142 147.396C431.166 147.356 430.212 147.685 429.469 148.319C420.549 155.992 409.062 160.017 397.304 159.586C385.546 159.156 374.383 154.304 366.049 145.999Z" stroke="black" stroke-width="32" stroke-miterlimit="10"/>
<path d="M250.5 140.44L233.99 123.93M294.52 184.46L283.51 173.46M338.54 228.49L327.54 217.48M388.07 278.01L371.56 261.5" stroke="black" stroke-width="32" stroke-miterlimit="10" stroke-linecap="round"/>
</svg>
